# xmcd
#
# Track frame offsets:
#	150
#	18220
#	42020
#	65000
#	81445
#	104175
#	141685
#	159820
#	179740
#	199120
#
# Disc length: 3002 seconds
#
# Revision: 0
# Processed by: cddbd v1.5.1PL2 Copyright (c) Steve Scherf et al.
# Submitted via: EasyCDDAExtractor 8.0.2.1
#
DISCID=910bb80a
DTITLE=Kiss - Tokyo 22-04-88 Disc 1
DYEAR=1988
DGENRE=Hard Rock
TTITLE0=Love Gun
TTITLE1=Cold Gin
TTITLE2=Bang Bang You
TTITLE3=Calling Dr Love
TTITLE4=Fits Like A Glove
TTITLE5=Crazy Crazy Night
TTITLE6=No No No
TTITLE7=Reason To Live
TTITLE8=Heaven's On Fire
TTITLE9=Drum Solo
EXTD=
EXTT0=
EXTT1=
EXTT2=
EXTT3=
EXTT4=
EXTT5=
EXTT6=
EXTT7=
EXTT8=
EXTT9=
PLAYORDER=
